<svg width="22" height="12" viewBox="0 0 22 12" fill="none" xmlns="http://www.w3.org/2000/svg">
<path d="M0.758523 9V0.272727H4.2017C4.86364 0.272727 5.42756 0.399148 5.89347 0.651989C6.35938 0.901989 6.71449 1.25 6.95881 1.69602C7.20597 2.1392 7.32955 2.65057 7.32955 3.23011C7.32955 3.80966 7.20455 4.32102 6.95455 4.7642C6.70455 5.20739 6.34233 5.55256 5.8679 5.79972C5.39631 6.04687 4.82528 6.17045 4.15483 6.17045H1.96023V4.69176H3.85653C4.21165 4.69176 4.50426 4.63068 4.73438 4.50852C4.96733 4.38352 5.14063 4.21165 5.25426 3.9929C5.37074 3.77131 5.42898 3.51705 5.42898 3.23011C5.42898 2.94034 5.37074 2.6875 5.25426 2.47159C5.14063 2.25284 4.96733 2.08381 4.73438 1.96449C4.50142 1.84233 4.20597 1.78125 3.84801 1.78125H2.60369V9H0.758523ZM10.1847 9.12358C9.76705 9.12358 9.39489 9.05114 9.06818 8.90625C8.74148 8.75852 8.48295 8.54119 8.29261 8.25426C8.10511 7.96449 8.01136 7.60369 8.01136 7.17188C8.01136 6.80824 8.07813 6.50284 8.21165 6.25568C8.34517 6.00852 8.52699 5.80966 8.7571 5.65909C8.98722 5.50852 9.24858 5.39489 9.54119 5.31818C9.83665 5.24148 10.1463 5.1875 10.4702 5.15625C10.8509 5.11648 11.1577 5.07955 11.3906 5.04545C11.6236 5.00852 11.7926 4.95455 11.8977 4.88352C12.0028 4.8125 12.0554 4.70739 12.0554 4.56818V4.54261C12.0554 4.27273 11.9702 4.06392 11.7997 3.91619C11.6321 3.76847 11.3935 3.6946 11.0838 3.6946C10.7571 3.6946 10.4972 3.76705 10.304 3.91193C10.1108 4.05398 9.98295 4.23295 9.92045 4.44886L8.24148 4.3125C8.3267 3.91477 8.49432 3.57102 8.74432 3.28125C8.99432 2.98864 9.31676 2.7642 9.71165 2.60795C10.1094 2.44886 10.5696 2.36932 11.0923 2.36932C11.456 2.36932 11.804 2.41193 12.1364 2.49716C12.4716 2.58239 12.7685 2.71449 13.027 2.89347C13.2884 3.07244 13.4943 3.30256 13.6449 3.58381C13.7955 3.86222 13.8707 4.19602 13.8707 4.58523V9H12.1491V8.09233H12.098C11.9929 8.29688 11.8523 8.47727 11.6761 8.63352C11.5 8.78693 11.2884 8.90767 11.0412 8.99574C10.794 9.08097 10.5085 9.12358 10.1847 9.12358ZM10.7045 7.87074C10.9716 7.87074 11.2074 7.81818 11.4119 7.71307C11.6165 7.60511 11.777 7.46023 11.8935 7.27841C12.0099 7.09659 12.0682 6.89062 12.0682 6.66051V5.96591C12.0114 6.00284 11.9332 6.03693 11.8338 6.06818C11.7372 6.09659 11.6278 6.12358 11.5057 6.14915C11.3835 6.17187 11.2614 6.19318 11.1392 6.21307C11.017 6.23011 10.9062 6.24574 10.8068 6.25994C10.5938 6.29119 10.4077 6.34091 10.2486 6.40909C10.0895 6.47727 9.96591 6.5696 9.87784 6.68608C9.78977 6.79972 9.74574 6.94176 9.74574 7.11222C9.74574 7.35938 9.83523 7.5483 10.0142 7.67898C10.196 7.80682 10.4261 7.87074 10.7045 7.87074ZM16.1655 11.4545C15.9354 11.4545 15.7195 11.4361 15.5178 11.3991C15.3189 11.3651 15.1541 11.321 15.0234 11.267L15.4325 9.91193C15.6456 9.97727 15.8374 10.0128 16.0078 10.0185C16.1811 10.0241 16.3303 9.98438 16.4553 9.89915C16.5831 9.81392 16.6868 9.66903 16.7663 9.46449L16.8729 9.1875L14.5249 2.45455H16.4339L17.7891 7.26136H17.8572L19.2251 2.45455H21.147L18.603 9.70739C18.4808 10.0597 18.3146 10.3665 18.1044 10.6278C17.897 10.892 17.6342 11.0952 17.3161 11.2372C16.9979 11.3821 16.6143 11.4545 16.1655 11.4545Z" fill="#5C5C5C"/>
</svg>
