<svg width="107" height="160" viewBox="0 0 107 160" fill="none" xmlns="http://www.w3.org/2000/svg">
<g clip-path="url(#clip0_12_238)">
<path d="M33.9839 3.56748C34.7953 4.3149 35.9223 5.39712 37.19 6.77306C39.2438 9.00306 42.3817 12.4088 44.7468 17.305C46.0241 19.9485 47.6565 23.3272 47.8383 28.0661C47.9162 30.0968 48.1076 35.0961 45.0904 39.7432C42.7909 43.2845 39.2866 45.6063 36.7319 47.2987C35.7614 47.942 35.1319 48.2891 33.1821 49.5881C31.8471 50.478 29.2783 52.1896 27.3426 53.7089C26.3187 54.5123 22.8101 57.2449 20.1294 61.0353C14.3852 69.1572 14.6099 79.0432 14.7296 84.3057C14.7559 85.4631 14.8171 86.4116 14.8625 87.0218C15.0496 86.5139 15.3329 85.7708 15.7019 84.8844C16.1635 83.7777 17.8632 79.7347 19.9004 76.7564C23.6757 71.236 29.2853 68.6459 30.6248 68.0558C31.7701 67.5514 34.5688 66.7533 40.1662 65.1553C43.5384 64.1928 44.7424 63.914 46.7691 63.0188C48.6794 62.1753 50.9798 61.1359 53.4095 58.9741C54.2051 58.266 56.3997 56.2056 58.1807 52.8304C58.714 51.8199 59.7265 49.7122 60.3175 46.8397C60.9479 43.7784 60.7774 41.419 60.6226 39.2843C60.3289 35.2273 59.4117 32.2149 59.0961 31.2323C57.9752 27.7452 56.564 25.3465 55.3173 23.2573C54.6458 22.1322 52.9435 19.3838 50.2034 16.2359C49.594 15.5366 47.862 13.5855 45.2801 11.3135C42.7813 9.11496 39.0619 6.24156 33.983 3.56748H33.9839Z" fill="url(#paint0_linear_12_238)"/>
<path d="M31.5332 110.858C39.8086 105.051 46.4604 99.6727 51.3942 95.4426C64.9986 83.7795 70.3844 76.6917 71.8707 74.6934C75.5289 69.7718 77.7103 66.8372 79.6225 62.0905C80.9645 58.759 85.212 47.873 81.4541 35.3024C78.5558 25.6062 72.5317 19.8908 68.4014 16.0698C56.6611 5.21005 43.0471 2.17581 36.1137 1.188C38.6099 0.708076 42.06 0.192317 46.1894 0.042834C58.9387 -0.417853 68.5308 2.95731 71.1494 3.93463C76.7809 6.03701 87.9407 10.2033 96.3385 21.564C102.802 30.3074 104.407 38.9521 104.812 41.4828C105.343 44.8099 106.309 53.2675 102.98 63.0048C101.983 65.9202 98.7945 74.2327 88.0955 84.0688C68.7713 101.834 42.3599 108.56 31.5332 110.857V110.858Z" fill="url(#paint1_linear_12_238)"/>
<path d="M9.38758 139.488C8.56047 140.094 7.76047 140.549 6.98758 140.851C6.21468 141.154 5.34735 141.306 4.38648 141.306C3.50953 141.306 2.73839 141.142 2.0739 140.816C1.40942 140.49 0.897945 140.048 0.5386 139.488C0.179255 138.93 -0.000854492 138.324 -0.000854492 137.671C-0.000854492 136.79 0.29554 136.039 0.889202 135.417C1.48199 134.796 2.29685 134.379 3.33292 134.167C3.54975 134.119 4.08921 134.014 4.94954 133.848C5.80987 133.683 6.54779 133.532 7.16156 133.394C7.77534 133.257 8.44157 133.089 9.16113 132.892C9.11916 132.042 8.93731 131.419 8.61556 131.021C8.29381 130.624 7.62758 130.425 6.61686 130.425C5.74779 130.425 5.0938 130.54 4.65489 130.767C4.21598 130.995 3.84003 131.338 3.52702 131.793C3.21402 132.249 2.99194 132.55 2.86254 132.696C2.73314 132.842 2.45511 132.915 2.02931 132.915C1.64461 132.915 1.31237 132.798 1.03259 132.567C0.752808 132.335 0.612917 132.038 0.612917 131.676C0.612917 131.11 0.826251 130.559 1.25204 130.024C1.67784 129.489 2.34232 129.048 3.24462 128.702C4.14691 128.356 5.27041 128.183 6.61599 128.183C8.11982 128.183 9.3019 128.35 10.1631 128.685C11.0234 129.019 11.6311 129.548 11.9869 130.272C12.3419 130.996 12.5194 131.956 12.5194 133.152C12.5194 133.907 12.5168 134.548 12.5133 135.075C12.5089 135.602 12.5028 136.189 12.4949 136.833C12.4949 137.439 12.6016 138.07 12.8149 138.727C13.0282 139.384 13.1349 139.807 13.1349 139.996C13.1349 140.326 12.9697 140.627 12.64 140.899C12.3096 141.17 11.9362 141.306 11.5183 141.306C11.1677 141.306 10.8206 141.15 10.4779 140.84C10.1351 140.53 9.77141 140.079 9.38758 139.488ZM9.16201 134.827C8.66102 135.001 7.93184 135.183 6.97446 135.376C6.01796 135.57 5.35522 135.711 4.98801 135.801C4.61992 135.892 4.26932 136.069 3.93533 136.332C3.60134 136.596 3.43434 136.963 3.43434 137.435C3.43434 137.907 3.63019 138.338 4.02363 138.68C4.4162 139.022 4.9303 139.193 5.56506 139.193C6.24178 139.193 6.86604 139.053 7.43872 138.774C8.01053 138.495 8.43108 138.135 8.69862 137.695C9.00813 137.207 9.16201 136.404 9.16201 135.287V134.827Z" fill="black"/>
<path d="M15.5419 128.491H15.9179V126.556C15.9179 126.037 15.9327 125.629 15.9616 125.335C15.9904 125.04 16.0726 124.786 16.2064 124.573C16.3402 124.353 16.5325 124.174 16.7826 124.037C17.0335 123.899 17.3133 123.83 17.6219 123.83C18.0565 123.83 18.449 123.983 18.8005 124.29C19.034 124.495 19.1826 124.745 19.2455 125.039C19.3085 125.334 19.34 125.754 19.34 126.296V128.491H20.5937C21.0781 128.491 21.4479 128.6 21.7032 128.816C21.9577 129.033 22.0853 129.31 22.0853 129.648C22.0853 130.081 21.9035 130.384 21.5397 130.556C21.176 130.729 20.6558 130.816 19.9791 130.816H19.34V136.739C19.34 137.243 19.3583 137.63 19.3968 137.902C19.4344 138.173 19.5349 138.393 19.6976 138.563C19.8602 138.732 20.126 138.816 20.4932 138.816C20.6934 138.816 20.9653 138.783 21.3081 138.716C21.6508 138.649 21.9175 138.615 22.1098 138.615C22.3852 138.615 22.6344 138.719 22.8556 138.928C23.0768 139.137 23.1878 139.394 23.1878 139.701C23.1878 140.22 22.8871 140.617 22.2855 140.892C21.684 141.168 20.8193 141.305 19.6914 141.305C18.6221 141.305 17.8117 141.135 17.26 140.798C16.7083 140.461 16.3472 139.992 16.1758 139.394C16.0044 138.796 15.9188 137.998 15.9188 136.999V130.816H15.4676C14.9745 130.816 14.5985 130.706 14.3397 130.485C14.0809 130.265 13.9515 129.986 13.9515 129.648C13.9515 129.31 14.0871 129.033 14.359 128.816C14.63 128.6 15.0252 128.491 15.5437 128.491H15.5419Z" fill="black"/>
<path d="M33.816 139.465V139.147C33.3562 139.642 32.9033 140.045 32.4565 140.357C32.0097 140.668 31.5245 140.903 31.0025 141.065C30.4805 141.225 29.9096 141.307 29.2914 141.307C28.4722 141.307 27.7142 141.143 27.0165 140.817C26.3188 140.491 25.7146 140.025 25.2058 139.419C24.696 138.813 24.3096 138.101 24.0464 137.283C23.7832 136.465 23.6512 135.58 23.6512 134.628C23.6512 132.614 24.1732 131.045 25.218 129.92C26.2628 128.795 27.6372 128.233 29.3413 128.233C30.3275 128.233 31.159 128.392 31.8357 128.711C32.5124 129.03 33.1725 129.519 33.816 130.18V125.425C33.816 124.764 33.9559 124.265 34.2357 123.927C34.5155 123.588 34.9142 123.42 35.4327 123.42C35.9511 123.42 36.3498 123.575 36.6296 123.885C36.9094 124.197 37.0493 124.655 37.0493 125.261V139.468C37.0493 140.081 36.8989 140.541 36.5981 140.848C36.2974 141.155 35.9092 141.308 35.4327 141.308C34.9562 141.308 34.5785 141.149 34.2733 140.829C33.9682 140.51 33.816 140.057 33.816 139.467V139.465ZM27.0855 134.733C27.0855 135.606 27.2298 136.349 27.5183 136.963C27.8068 137.577 28.2012 138.039 28.703 138.349C29.204 138.661 29.7513 138.815 30.345 138.815C30.9387 138.815 31.4956 138.668 31.9931 138.373C32.4897 138.078 32.8875 137.626 33.1839 137.016C33.4803 136.407 33.6289 135.646 33.6289 134.733C33.6289 133.875 33.4803 133.139 33.1839 132.52C32.8875 131.903 32.4862 131.431 31.9808 131.104C31.4755 130.778 30.922 130.615 30.3205 130.615C29.719 130.615 29.1341 130.782 28.6409 131.117C28.1478 131.451 27.7658 131.93 27.4938 132.556C27.2219 133.181 27.0864 133.908 27.0864 134.734L27.0855 134.733Z" fill="black"/>
<path d="M50.0347 135.548H43.3418C43.3496 136.279 43.507 136.925 43.8121 137.483C44.1173 138.042 44.5221 138.462 45.0283 138.745C45.5337 139.029 46.0915 139.17 46.7018 139.17C47.1109 139.17 47.4852 139.125 47.8235 139.035C48.1619 138.945 48.4897 138.803 48.8071 138.61C49.1245 138.418 49.4174 138.21 49.6849 137.99C49.9525 137.77 50.2987 137.471 50.7254 137.093C50.9011 136.952 51.1512 136.881 51.4773 136.881C51.8279 136.881 52.1121 136.972 52.3298 137.152C52.5466 137.333 52.6559 137.588 52.6559 137.918C52.6559 138.21 52.5343 138.55 52.2922 138.94C52.05 139.329 51.6845 139.703 51.1958 140.06C50.707 140.419 50.0924 140.715 49.3536 140.951C48.6139 141.187 47.7641 141.305 46.8032 141.305C44.6051 141.305 42.8967 140.715 41.6771 139.535C40.4565 138.355 39.8471 136.754 39.8471 134.732C39.8471 133.78 39.9975 132.897 40.2983 132.083C40.599 131.27 41.0379 130.571 41.6141 129.989C42.1903 129.407 42.9011 128.961 43.7448 128.65C44.5885 128.339 45.5249 128.184 46.5523 128.184C47.8891 128.184 49.0362 128.449 49.9927 128.98C50.9492 129.512 51.6661 130.198 52.1418 131.04C52.6183 131.881 52.8561 132.739 52.8561 133.612C52.8561 134.423 52.6095 134.948 52.1164 135.188C51.6233 135.428 50.93 135.548 50.0355 135.548H50.0347ZM43.3418 133.719H49.5459C49.462 132.618 49.1472 131.794 48.5999 131.247C48.0526 130.7 47.3321 130.427 46.4377 130.427C45.5433 130.427 44.8858 130.704 44.3385 131.259C43.7912 131.813 43.4589 132.634 43.3418 133.719Z" fill="black"/>
<path d="M55.737 139.347V125.376C55.737 124.731 55.8891 124.243 56.1942 123.913C56.4994 123.582 56.9103 123.417 57.4288 123.417C57.9472 123.417 58.3643 123.58 58.6825 123.906C58.9999 124.233 59.1591 124.723 59.1591 125.376V139.347C59.1591 140 58.9982 140.489 58.6764 140.816C58.3547 141.142 57.9385 141.306 57.4296 141.306C56.9208 141.306 56.5212 141.136 56.2074 140.799C55.8935 140.461 55.737 139.977 55.737 139.348V139.347Z" fill="black"/>
<path d="M75.5027 134.757C75.5027 135.716 75.3435 136.601 75.0262 137.411C74.7088 138.222 74.2489 138.918 73.6474 139.5C73.0458 140.082 72.3271 140.529 71.4913 140.839C70.6554 141.149 69.7156 141.305 68.6716 141.305C67.6277 141.305 66.7035 141.148 65.8764 140.833C65.0493 140.518 64.3324 140.068 63.7265 139.481C63.1206 138.896 62.6616 138.203 62.3477 137.404C62.0347 136.606 61.8773 135.723 61.8773 134.756C61.8773 133.789 62.0355 132.888 62.3538 132.077C62.6712 131.267 63.1267 130.575 63.7195 130C64.3131 129.426 65.031 128.984 65.8756 128.672C66.7193 128.362 67.6513 128.206 68.6707 128.206C69.6902 128.206 70.6467 128.364 71.4904 128.679C72.3341 128.993 73.0572 129.442 73.6587 130.024C74.2603 130.606 74.7175 131.298 75.0314 132.101C75.3453 132.903 75.5018 133.788 75.5018 134.756L75.5027 134.757ZM72.0684 134.757C72.0684 133.443 71.7615 132.42 71.1468 131.688C70.533 130.957 69.7077 130.591 68.6716 130.591C68.0028 130.591 67.4143 130.755 66.9046 131.081C66.3949 131.408 66.0023 131.889 65.726 132.527C65.4506 133.164 65.3125 133.907 65.3125 134.757C65.3125 135.606 65.448 136.334 65.7199 136.963C65.991 137.592 66.38 138.074 66.8854 138.409C67.3907 138.744 67.9862 138.911 68.6716 138.911C69.7077 138.911 70.533 138.543 71.1468 137.807C71.7606 137.072 72.0684 136.056 72.0684 134.757V134.757Z" fill="black"/>
<path d="M91.007 134.757C91.007 135.716 90.8478 136.601 90.5305 137.411C90.2131 138.222 89.7532 138.918 89.1517 139.5C88.5501 140.082 87.8315 140.529 86.9956 140.839C86.1598 141.149 85.2199 141.305 84.1759 141.305C83.132 141.305 82.2078 141.148 81.3807 140.833C80.5536 140.518 79.8367 140.068 79.2308 139.481C78.6249 138.896 78.1659 138.203 77.852 137.404C77.539 136.606 77.3816 135.723 77.3816 134.756C77.3816 133.789 77.5398 132.888 77.8581 132.077C78.1755 131.267 78.631 130.575 79.2238 130C79.8174 129.426 80.5353 128.984 81.3799 128.672C82.2236 128.362 83.1556 128.206 84.175 128.206C85.1945 128.206 86.151 128.364 86.9947 128.679C87.8384 128.993 88.5615 129.442 89.163 130.024C89.7646 130.606 90.2218 131.298 90.5357 132.101C90.8496 132.903 91.0061 133.788 91.0061 134.756L91.007 134.757ZM87.5726 134.757C87.5726 133.443 87.2658 132.42 86.6511 131.688C86.0373 130.957 85.212 130.591 84.1759 130.591C83.5071 130.591 82.9187 130.755 82.4089 131.081C81.8992 131.408 81.5066 131.889 81.2303 132.527C80.9549 133.164 80.8168 133.907 80.8168 134.757C80.8168 135.606 80.9523 136.334 81.2242 136.963C81.4953 137.592 81.8843 138.074 82.3897 138.409C82.895 138.744 83.4905 138.911 84.1759 138.911C85.212 138.911 86.0373 138.543 86.6511 137.807C87.2649 137.072 87.5726 136.056 87.5726 134.757V134.757Z" fill="black"/>
<path d="M96.8605 130.013V130.402C97.504 129.655 98.172 129.107 98.8662 128.756C99.5596 128.407 100.346 128.231 101.223 128.231C102.275 128.231 103.245 128.487 104.131 128.998C105.016 129.509 105.716 130.256 106.23 131.24C106.744 132.223 107.001 133.388 107.001 134.733C107.001 135.724 106.852 136.635 106.556 137.465C106.259 138.295 105.852 138.991 105.334 139.553C104.815 140.116 104.203 140.549 103.498 140.851C102.791 141.154 102.033 141.306 101.223 141.306C100.245 141.306 99.4241 141.121 98.7596 140.752C98.0951 140.383 97.4621 139.839 96.8605 139.123V143.961C96.8605 145.377 96.3132 146.085 95.2186 146.085C94.5751 146.085 94.1493 145.902 93.9403 145.536C93.7314 145.171 93.6273 144.637 93.6273 143.937V130.037C93.6273 129.423 93.769 128.965 94.0531 128.662C94.3373 128.359 94.7255 128.207 95.2186 128.207C95.7117 128.207 96.0981 128.363 96.4033 128.673C96.7084 128.984 96.8605 129.43 96.8605 130.013V130.013ZM103.566 134.698C103.566 133.848 103.428 133.119 103.152 132.509C102.877 131.9 102.494 131.431 102.005 131.105C101.516 130.779 100.975 130.616 100.382 130.616C99.438 130.616 98.6424 130.965 97.9945 131.666C97.3467 132.366 97.0232 133.396 97.0232 134.758C97.0232 136.04 97.3449 137.037 97.9884 137.749C98.6319 138.461 99.4302 138.817 100.382 138.817C100.951 138.817 101.477 138.662 101.961 138.351C102.446 138.041 102.835 137.574 103.127 136.953C103.419 136.331 103.566 135.58 103.566 134.699V134.698Z" fill="black"/>
<path d="M7.30843 157.048C6.72089 157.836 6.13947 158.428 5.56504 158.822C4.98974 159.217 4.4634 159.414 3.98514 159.414C3.66165 159.414 3.38274 159.278 3.14755 159.005C2.91236 158.732 2.7952 158.382 2.7952 157.954C2.7952 156.851 3.28831 155.662 4.27454 154.39C5.26078 153.116 6.24089 152.48 7.214 152.48C7.56635 152.48 7.82865 152.681 8.00089 153.084C8.0551 153.218 8.14166 153.285 8.25881 153.285C8.59455 153.285 8.76242 153.415 8.76242 153.675C8.76242 153.805 8.74144 153.983 8.69947 154.209C8.47302 155.447 8.35936 156.32 8.35936 156.828C8.35936 157.843 8.55259 158.451 8.93816 158.653C9.12264 158.753 9.21532 158.878 9.21532 159.024C9.21532 159.155 9.12526 159.286 8.94428 159.418C8.76417 159.55 8.58931 159.616 8.42144 159.616C8.09794 159.616 7.83215 159.394 7.62231 158.949C7.41247 158.504 7.30756 157.871 7.30756 157.049L7.30843 157.048ZM6.9246 153.505C6.37116 153.505 5.72679 154.024 4.99236 155.063C4.25793 156.101 3.89072 156.962 3.89072 157.646C3.89072 158.128 4.04984 158.37 4.36897 158.37C4.83061 158.37 5.47061 157.904 6.28897 156.973C7.10734 156.042 7.51652 155.185 7.51652 154.405C7.51652 153.806 7.31892 153.506 6.9246 153.506V153.505Z" fill="black"/>
<path d="M18.3493 152.989C18.7812 152.956 19.1887 152.916 19.5708 152.869C19.9485 152.827 20.2632 152.806 20.515 152.806C20.8341 152.806 21.0352 152.836 21.1192 152.895C21.2031 152.953 21.2451 153.056 21.2451 153.203C21.2451 153.543 21.0081 153.728 20.5334 153.758C19.9249 153.795 19.3644 153.848 18.8529 153.915C18.3415 153.982 18.0652 154.037 18.025 154.082C17.9847 154.126 17.858 154.626 17.6438 155.579C17.4295 156.534 17.3229 157.154 17.3229 157.439C17.3229 157.9 17.3832 158.207 17.5056 158.361C17.6271 158.514 17.8099 158.591 18.0529 158.591C18.414 158.591 18.915 158.32 19.5576 157.779C19.8051 157.557 19.9957 157.445 20.1303 157.445C20.3104 157.445 20.4014 157.542 20.4014 157.734C20.4014 158.037 20.1111 158.427 19.5297 158.908C18.9482 159.389 18.3537 159.628 17.7452 159.628C16.7292 159.628 16.2221 159.031 16.2221 157.835C16.2221 157.403 16.327 156.733 16.5369 155.827C16.7423 154.925 16.8455 154.383 16.8455 154.203C16.8455 154.14 16.7948 154.109 16.6942 154.109L16.0394 154.166C15.5025 154.166 15.2341 153.952 15.2341 153.524C15.2341 153.281 15.3583 153.159 15.6057 153.159H16.9023C16.9906 153.159 17.0685 153.119 17.1349 153.039C17.2022 152.959 17.301 152.692 17.4304 152.236C17.5607 151.781 17.6761 151.332 17.7766 150.887C17.8772 150.446 18.0748 150.226 18.3686 150.226C18.5487 150.226 18.6894 150.289 18.79 150.415C18.8905 150.541 18.9412 150.658 18.9412 150.767C18.9412 150.826 18.8661 151.125 18.7148 151.667L18.3493 152.988V152.989Z" fill="black"/>
<path d="M22.8626 157.451C24.4232 154.569 25.7093 153.127 26.7209 153.127C26.9893 153.127 27.2079 153.28 27.3758 153.586C27.5437 153.892 27.6801 154.572 27.785 155.626C27.8899 156.746 28.1268 157.556 28.4958 158.055C28.6847 158.311 28.7791 158.5 28.7791 158.621C28.7791 158.731 28.7161 158.831 28.5902 158.924C28.4643 159.017 28.3297 159.062 28.1872 159.062C27.8602 159.062 27.5699 158.878 27.3181 158.511C27.0663 158.144 26.9045 157.499 26.8337 156.576C26.762 155.703 26.6868 155.133 26.6073 154.864C26.5277 154.596 26.3957 154.461 26.2103 154.461C25.7697 154.461 24.8822 155.613 23.548 157.916C23.1493 158.604 22.8556 159.054 22.6667 159.266C22.4779 159.477 22.3056 159.584 22.1509 159.584C21.9664 159.584 21.8108 159.53 21.6849 159.42C21.559 159.311 21.496 159.177 21.496 159.017C21.496 158.9 21.5292 158.674 21.5965 158.338C22.1124 155.674 22.5198 153.039 22.818 150.434C22.8853 149.826 22.9928 149.421 23.1423 149.22C23.291 149.019 23.416 148.917 23.5166 148.917C23.6967 148.917 23.8602 148.991 24.0079 149.138C24.1548 149.284 24.2282 149.488 24.2282 149.748C24.2282 150.52 24.0394 151.579 23.6617 152.926C23.4772 153.593 23.2822 154.441 23.0759 155.468C22.8704 156.496 22.7673 157.132 22.7673 157.375C22.7673 157.426 22.79 157.45 22.8363 157.45H22.8617L22.8626 157.451Z" fill="black"/>
<path d="M31.1703 156.841C31.2123 156.766 31.2621 156.661 31.3216 156.526C31.6066 155.871 31.8689 155.359 32.1085 154.988C32.348 154.616 32.6112 154.26 32.8989 153.921C33.1865 153.581 33.4488 153.323 33.6857 153.147C33.9227 152.971 34.1378 152.848 34.331 152.779C34.5242 152.71 34.7105 152.675 34.8914 152.675C35.2569 152.675 35.5542 152.785 35.785 153.006C36.0158 153.226 36.1312 153.483 36.1312 153.777C36.1312 153.907 36.0901 154.024 36.0088 154.129C35.9266 154.234 35.8025 154.286 35.6346 154.286C35.458 154.286 35.2971 154.209 35.1502 154.054C34.999 153.898 34.8416 153.821 34.6781 153.821C34.2418 153.821 33.6377 154.35 32.8656 155.407C32.0936 156.464 31.6232 157.628 31.4554 158.9C31.4134 159.227 31.3338 159.443 31.2158 159.549C31.0986 159.654 30.9325 159.706 30.7183 159.706C30.5041 159.706 30.3633 159.553 30.2715 159.246C30.1789 158.94 30.1334 158.424 30.1334 157.698C30.1334 157.502 30.1439 157.067 30.1649 156.396C30.1902 155.603 30.2401 154.963 30.3161 154.476C30.3284 154.397 30.3493 154.209 30.3791 153.916C30.4079 153.592 30.4455 153.369 30.4892 153.243C30.533 153.117 30.6239 153 30.7603 152.89C30.8967 152.781 31.0444 152.727 31.2044 152.727C31.3644 152.727 31.4763 152.776 31.5542 152.875C31.632 152.973 31.6704 153.079 31.6704 153.193C31.6704 153.356 31.6285 153.587 31.5445 153.885C31.4484 154.216 31.3915 154.446 31.3749 154.571C31.3627 154.714 31.3391 154.863 31.3059 155.018C31.2639 155.198 31.2219 155.673 31.18 156.44L31.1738 156.673V156.842L31.1703 156.841Z" fill="black"/>
<path d="M37.7924 157.942C37.7924 158.261 37.8362 158.62 37.9245 159.018C37.9411 159.093 37.9498 159.156 37.9498 159.207C37.9498 159.282 37.8807 159.38 37.7417 159.5C37.6027 159.62 37.4567 159.679 37.3011 159.679C36.8936 159.679 36.6908 159.306 36.6908 158.559C36.6908 157.813 36.8499 156.566 37.169 154.897C37.2783 154.314 37.3325 153.955 37.3325 153.82C37.3325 153.556 37.3806 153.331 37.4777 153.144C37.5739 152.958 37.7103 152.864 37.8869 152.864C38.1011 152.864 38.2698 152.916 38.3931 153.018C38.5172 153.121 38.5784 153.235 38.5784 153.361C38.5784 153.487 38.5487 153.653 38.4901 153.858C38.1754 154.966 37.9804 155.759 37.9044 156.237C37.8292 156.715 37.7907 157.284 37.7907 157.942H37.7924ZM38.6169 150.913C38.5286 150.913 38.4613 150.819 38.4158 150.63C38.3992 150.571 38.3756 150.506 38.3468 150.435C38.2331 150.162 38.1771 149.925 38.1771 149.724C38.1771 149.556 38.2768 149.385 38.4762 149.211C38.6755 149.037 38.8967 148.95 39.1406 148.95C39.2622 148.95 39.3986 148.997 39.5498 149.091C39.7011 149.186 39.7763 149.277 39.7763 149.365C39.7763 149.503 39.7247 149.738 39.6224 150.069C39.5192 150.401 39.3557 150.625 39.131 150.74C38.9063 150.855 38.7358 150.913 38.6178 150.913H38.6169Z" fill="black"/>
<path d="M41.5695 159.628C41.5398 159.733 41.4602 159.822 41.3299 159.892C41.1996 159.964 41.0694 159.999 40.94 159.999C40.5116 159.999 40.2982 159.686 40.2982 159.061C40.2982 158.763 40.397 157.92 40.5937 156.531C40.7153 155.68 40.7765 155.034 40.7765 154.593C40.7765 154.518 40.6882 154.419 40.5124 154.298C40.3323 154.181 40.2414 154.065 40.2414 153.952C40.2414 153.772 40.3778 153.577 40.6506 153.366C40.8604 153.202 40.9898 153.02 41.0379 152.819C41.086 152.618 41.1419 152.338 41.2049 151.981C41.4191 150.68 41.7531 149.743 42.2086 149.168C42.6641 148.594 43.2438 148.306 43.9494 148.306C44.3227 148.306 44.6392 148.433 44.8998 148.687C45.1603 148.941 45.2897 149.256 45.2897 149.634C45.2897 149.94 45.2171 150.288 45.0729 150.676C44.9277 151.064 44.7634 151.258 44.5789 151.258C44.4407 151.258 44.3708 151.189 44.3708 151.05L44.4145 150.44C44.4145 149.631 44.1881 149.226 43.7343 149.226C43.2429 149.226 42.8364 149.708 42.5129 150.67C42.1894 151.632 42.0285 152.417 42.0285 153.021C42.0285 153.214 42.1544 153.31 42.4062 153.31C43.5017 153.31 44.147 153.306 44.3419 153.298C44.5369 153.289 44.6348 153.371 44.6348 153.543C44.6348 153.716 44.5291 153.847 44.3166 153.937C44.105 154.027 43.6425 154.108 42.929 154.179C42.3205 154.242 41.976 154.294 41.8965 154.336C41.6149 155.897 41.4751 157.287 41.4751 158.509C41.4751 158.874 41.4917 159.144 41.5258 159.321C41.5546 159.484 41.5695 159.587 41.5695 159.629V159.628Z" fill="black"/>
<path d="M47.681 152.989C48.1129 152.956 48.5203 152.916 48.9024 152.869C49.2801 152.827 49.5949 152.806 49.8467 152.806C50.1658 152.806 50.3669 152.836 50.4508 152.895C50.5348 152.953 50.5767 153.056 50.5767 153.203C50.5767 153.543 50.3398 153.728 49.8659 153.758C49.2574 153.795 48.6969 153.848 48.1855 153.915C47.6731 153.982 47.3977 154.037 47.3575 154.082C47.3173 154.126 47.1905 154.626 46.9763 155.579C46.7621 156.534 46.6554 157.154 46.6554 157.439C46.6554 157.9 46.7166 158.207 46.8381 158.361C46.9597 158.514 47.1424 158.591 47.3855 158.591C47.7465 158.591 48.2475 158.32 48.8902 157.779C49.1376 157.557 49.3282 157.445 49.4628 157.445C49.6429 157.445 49.7339 157.542 49.7339 157.734C49.7339 158.037 49.4436 158.427 48.8622 158.908C48.2808 159.389 47.6862 159.628 47.0777 159.628C46.0617 159.628 45.5546 159.031 45.5546 157.835C45.5546 157.403 45.6595 156.733 45.8694 155.827C46.0748 154.925 46.178 154.383 46.178 154.203C46.178 154.14 46.1273 154.109 46.0268 154.109L45.3719 154.166C44.8351 154.166 44.5667 153.952 44.5667 153.524C44.5667 153.281 44.6908 153.159 44.9382 153.159H46.2348C46.3232 153.159 46.401 153.119 46.4674 153.039C46.5347 152.959 46.6335 152.692 46.7629 152.236C46.8932 151.781 47.0086 151.332 47.1092 150.887C47.2097 150.446 47.4073 150.226 47.7011 150.226C47.8812 150.226 48.022 150.289 48.1225 150.415C48.2231 150.541 48.2738 150.658 48.2738 150.767C48.2738 150.826 48.1986 151.125 48.0473 151.667L47.6818 152.988L47.681 152.989Z" fill="black"/>
<path d="M59.4825 157.898C59.4825 157.625 59.1468 157.315 58.4753 156.967C57.6237 156.53 57.0475 156.181 56.7476 155.918C56.4478 155.656 56.2974 155.363 56.2974 155.041C56.2974 154.206 56.7162 153.514 57.5529 152.964C58.3896 152.414 59.0733 152.139 59.6014 152.139C59.9415 152.139 60.1881 152.198 60.3411 152.316C60.4941 152.433 60.571 152.637 60.571 152.926C60.571 153.056 60.5151 153.167 60.404 153.26C60.293 153.353 60.2056 153.398 60.1426 153.398C60.0963 153.398 60.0062 153.367 59.8716 153.304C59.7369 153.245 59.6495 153.216 59.6075 153.216C59.3977 153.216 58.9719 153.369 58.3302 153.675C57.6884 153.98 57.3675 154.327 57.3675 154.713C57.3675 154.948 57.4812 155.161 57.7076 155.352C57.9341 155.543 58.3415 155.777 58.9291 156.054C59.403 156.28 59.7815 156.523 60.0657 156.781C60.349 157.039 60.4906 157.343 60.4906 157.69C60.4906 158.332 60.0482 158.835 59.1625 159.198C58.2768 159.56 57.4314 159.742 56.6261 159.742C55.9459 159.742 55.6067 159.511 55.6067 159.05C55.6067 158.891 55.6836 158.773 55.8366 158.697C55.9896 158.622 56.1444 158.584 56.2991 158.584C56.3621 158.584 56.4819 158.605 56.6576 158.647C56.8298 158.689 56.9426 158.71 56.9977 158.71C57.4637 158.71 57.9629 158.632 58.4954 158.477C59.0279 158.322 59.3575 158.129 59.4834 157.898L59.4825 157.898Z" fill="black"/>
<path d="M66.2305 156.601C65.6937 157.503 65.1437 158.202 64.5815 158.697C64.0194 159.191 63.4965 159.44 63.0139 159.44C62.7367 159.44 62.4543 159.278 62.1675 158.955C61.8799 158.632 61.7365 158.135 61.7365 157.464C61.7365 156.914 61.8685 156.105 62.1335 155.035C62.3555 154.141 62.4674 153.514 62.4674 153.153C62.589 152.901 62.7805 152.775 63.0401 152.775C63.2167 152.775 63.3566 152.837 63.4615 152.96C63.5665 153.084 63.6189 153.213 63.6189 153.348C63.6189 153.641 63.5157 154.058 63.3103 154.6C62.9203 155.654 62.7245 156.558 62.7245 157.313C62.7245 158.001 62.8836 158.345 63.2027 158.345C63.6093 158.345 64.1278 157.999 64.7573 157.307C65.3868 156.614 65.9262 155.649 66.3748 154.411C66.5514 153.917 66.6948 153.594 66.8058 153.445C66.9169 153.297 67.0672 153.222 67.2561 153.222C67.5411 153.222 67.6845 153.411 67.6845 153.788C67.6845 153.834 67.6443 153.987 67.5647 154.248C67.3129 155.167 67.187 156.036 67.187 156.853C67.187 157.835 67.3488 158.47 67.6714 158.76C67.8393 158.915 67.9232 159.041 67.9232 159.137C67.9232 159.254 67.8384 159.362 67.6679 159.458C67.4983 159.554 67.3435 159.603 67.2054 159.603C66.9116 159.603 66.6747 159.385 66.4946 158.948C66.3144 158.512 66.2235 157.868 66.2235 157.016V156.808C66.2235 156.741 66.2253 156.672 66.2296 156.6L66.2305 156.601Z" fill="black"/>
<path d="M72.8141 157.898C72.8141 157.625 72.4784 157.315 71.8069 156.967C70.9553 156.53 70.3792 156.181 70.0793 155.918C69.7794 155.656 69.629 155.363 69.629 155.041C69.629 154.206 70.0478 153.514 70.8845 152.964C71.7213 152.414 72.405 152.139 72.9331 152.139C73.2732 152.139 73.5197 152.198 73.6727 152.316C73.8257 152.433 73.9027 152.637 73.9027 152.926C73.9027 153.056 73.8467 153.167 73.7357 153.26C73.6246 153.353 73.5372 153.398 73.4743 153.398C73.4279 153.398 73.3379 153.367 73.2032 153.304C73.0686 153.245 72.9811 153.216 72.9392 153.216C72.7293 153.216 72.3035 153.369 71.6618 153.675C71.02 153.98 70.6992 154.327 70.6992 154.713C70.6992 154.948 70.8128 155.161 71.0393 155.352C71.2657 155.543 71.6732 155.777 72.2607 156.054C72.7346 156.28 73.1132 156.523 73.3973 156.781C73.6806 157.039 73.8222 157.343 73.8222 157.69C73.8222 158.332 73.3798 158.835 72.4942 159.198C71.6085 159.56 70.763 159.742 69.9578 159.742C69.2775 159.742 68.9383 159.511 68.9383 159.05C68.9383 158.891 69.0152 158.773 69.1682 158.697C69.3212 158.622 69.476 158.584 69.6308 158.584C69.6937 158.584 69.8135 158.605 69.9892 158.647C70.1615 158.689 70.2743 158.71 70.3293 158.71C70.7953 158.71 71.2946 158.632 71.827 158.477C72.3595 158.322 72.6891 158.129 72.815 157.898L72.8141 157.898Z" fill="black"/>
<path d="M77.6797 152.989C78.1116 152.956 78.5191 152.916 78.9011 152.869C79.2788 152.827 79.5936 152.806 79.8454 152.806C80.1645 152.806 80.3656 152.836 80.4496 152.895C80.5335 152.953 80.5755 153.056 80.5755 153.203C80.5755 153.543 80.3385 153.728 79.8638 153.758C79.2552 153.795 78.6948 153.848 78.1833 153.915C77.6718 153.982 77.3956 154.037 77.3553 154.082C77.3151 154.126 77.1883 154.626 76.9741 155.579C76.7599 156.534 76.6533 157.154 76.6533 157.439C76.6533 157.9 76.7145 158.207 76.836 158.361C76.9575 158.514 77.1403 158.591 77.3833 158.591C77.7444 158.591 78.2454 158.32 78.888 157.779C79.1355 157.557 79.3261 157.445 79.4607 157.445C79.6408 157.445 79.7317 157.542 79.7317 157.734C79.7317 158.037 79.4415 158.427 78.86 158.908C78.2786 159.389 77.6841 159.628 77.0756 159.628C76.0596 159.628 75.5525 159.031 75.5525 157.835C75.5525 157.403 75.6574 156.733 75.8672 155.827C76.0727 154.925 76.1759 154.383 76.1759 154.203C76.1759 154.14 76.1252 154.109 76.0246 154.109L75.3698 154.166C74.8329 154.166 74.5645 153.952 74.5645 153.524C74.5645 153.281 74.6887 153.159 74.9361 153.159H76.2327C76.321 153.159 76.3988 153.119 76.4653 153.039C76.5326 152.959 76.6314 152.692 76.7608 152.236C76.8911 151.781 77.0065 151.332 77.107 150.887C77.2076 150.446 77.4052 150.226 77.6989 150.226C77.8791 150.226 78.0198 150.289 78.1204 150.415C78.2209 150.541 78.2716 150.658 78.2716 150.767C78.2716 150.826 78.1964 151.125 78.0452 151.667L77.6806 152.988L77.6797 152.989Z" fill="black"/>
<path d="M85.4035 157.048C84.8159 157.836 84.2345 158.428 83.6601 158.822C83.0848 159.217 82.5584 159.414 82.0802 159.414C81.7567 159.414 81.4778 159.278 81.2426 159.005C81.0074 158.732 80.8902 158.382 80.8902 157.954C80.8902 156.851 81.3833 155.662 82.3696 154.39C83.3558 153.116 84.3359 152.48 85.309 152.48C85.6614 152.48 85.9237 152.681 86.0959 153.084C86.1501 153.218 86.2367 153.285 86.3538 153.285C86.6896 153.285 86.8575 153.415 86.8575 153.675C86.8575 153.805 86.8365 153.983 86.7945 154.209C86.5681 155.447 86.4544 156.32 86.4544 156.828C86.4544 157.843 86.6476 158.451 87.0332 158.653C87.2177 158.753 87.3103 158.878 87.3103 159.024C87.3103 159.155 87.2203 159.286 87.0393 159.418C86.8592 159.55 86.6843 159.616 86.5165 159.616C86.193 159.616 85.9272 159.394 85.7173 158.949C85.5075 158.504 85.4026 157.871 85.4026 157.049L85.4035 157.048ZM85.0196 153.505C84.4653 153.505 83.8218 154.024 83.0874 155.063C82.353 156.101 81.9858 156.962 81.9858 157.646C81.9858 158.128 82.1449 158.37 82.464 158.37C82.9256 158.37 83.5656 157.904 84.384 156.973C85.2024 156.042 85.6115 155.185 85.6115 154.405C85.6115 153.806 85.414 153.506 85.0196 153.506V153.505Z" fill="black"/>
<path d="M89.9289 157.942C89.9289 158.261 89.9726 158.62 90.0609 159.018C90.0776 159.093 90.0863 159.156 90.0863 159.207C90.0863 159.282 90.0172 159.38 89.8782 159.5C89.7401 159.62 89.5932 159.679 89.4376 159.679C89.0301 159.679 88.8273 159.306 88.8273 158.559C88.8273 157.813 88.9864 156.566 89.3055 154.897C89.4148 154.314 89.469 153.955 89.469 153.82C89.469 153.556 89.5171 153.331 89.6142 153.144C89.7103 152.958 89.8467 152.864 90.0234 152.864C90.2376 152.864 90.4063 152.916 90.5296 153.018C90.6537 153.121 90.7149 153.235 90.7149 153.361C90.7149 153.487 90.6852 153.653 90.6266 153.858C90.3119 154.966 90.1169 155.759 90.0408 156.237C89.9656 156.715 89.9272 157.284 89.9272 157.942H89.9289ZM90.7534 150.913C90.6651 150.913 90.5978 150.819 90.5523 150.63C90.5357 150.571 90.5121 150.506 90.4832 150.435C90.3705 150.162 90.3136 149.925 90.3136 149.724C90.3136 149.556 90.4133 149.385 90.6126 149.211C90.812 149.037 91.0332 148.95 91.2762 148.95C91.3978 148.95 91.5342 148.997 91.6854 149.091C91.8367 149.186 91.9119 149.277 91.9119 149.365C91.9119 149.503 91.8603 149.738 91.758 150.069C91.6548 150.401 91.4913 150.625 91.2666 150.74C91.0419 150.855 90.8714 150.913 90.7534 150.913Z" fill="black"/>
<path d="M96.739 154.5C96.5204 154.5 96.2826 154.642 96.0247 154.928C95.7667 155.213 95.3733 155.853 94.8443 156.848C94.1475 158.182 93.6981 158.941 93.4944 159.126C93.2907 159.31 93.1219 159.403 92.9882 159.403C92.4933 159.403 92.245 159.163 92.245 158.685C92.245 158.484 92.2782 158.198 92.3455 157.829C92.5764 156.563 92.6918 155.226 92.6918 153.82C92.6918 153.661 92.76 153.484 92.8964 153.289C93.0328 153.094 93.1622 152.996 93.2837 152.996C93.5023 152.996 93.657 153.063 93.7497 153.197C93.8415 153.332 93.8878 153.602 93.8878 154.009C93.8878 154.417 93.7619 155.306 93.5101 156.627C93.4262 157.064 93.3842 157.341 93.3842 157.458C93.3842 157.525 93.4008 157.558 93.4349 157.558C93.4979 157.558 93.789 157.058 94.3101 156.054C94.8347 155.035 95.2937 154.317 95.6889 153.902C96.0832 153.487 96.5178 153.279 96.9917 153.279C97.3694 153.279 97.6763 153.451 97.9141 153.794C98.151 154.139 98.3241 154.765 98.4334 155.676C98.5506 156.713 98.6572 157.357 98.7517 157.612C98.8461 157.865 98.9965 157.993 99.2019 157.993C99.3322 157.993 99.4957 157.947 99.6933 157.855C99.7265 157.838 99.7519 157.829 99.7685 157.829C99.9486 157.829 100.04 157.934 100.04 158.144C100.04 158.329 99.9154 158.525 99.668 158.732C99.4205 158.94 99.1224 159.044 98.7744 159.044C98.4264 159.044 98.1414 158.902 97.9464 158.619C97.7515 158.336 97.5967 157.579 97.4839 156.35C97.3667 155.117 97.1184 154.5 96.7407 154.5H96.739Z" fill="black"/>
</g>
<defs>
<linearGradient id="paint0_linear_12_238" x1="24.501" y1="89.014" x2="51.8869" y2="12.238" gradientUnits="userSpaceOnUse">
<stop stop-color="#034B00"/>
<stop offset="0.07" stop-color="#125800"/>
<stop offset="0.41" stop-color="#5D9600"/>
<stop offset="0.68" stop-color="#93C300"/>
<stop offset="0.89" stop-color="#B5DF00"/>
<stop offset="1" stop-color="#C2EA00"/>
</linearGradient>
<linearGradient id="paint1_linear_12_238" x1="46.0836" y1="115.521" x2="79.0279" y2="-1.48554" gradientUnits="userSpaceOnUse">
<stop stop-color="#034B00"/>
<stop offset="0.07" stop-color="#125800"/>
<stop offset="0.41" stop-color="#5D9600"/>
<stop offset="0.68" stop-color="#93C300"/>
<stop offset="0.89" stop-color="#B5DF00"/>
<stop offset="1" stop-color="#C2EA00"/>
</linearGradient>
<clipPath id="clip0_12_238">
<rect width="107" height="160" fill="white"/>
</clipPath>
</defs>
</svg>
